<?xml version="1.0" standalone="no"?>
<!DOCTYPE svg PUBLIC "-//W3C//DTD SVG 20010904//EN"
 "http://www.w3.org/TR/2001/REC-SVG-20010904/DTD/svg10.dtd">
<svg version="1.0" xmlns="http://www.w3.org/2000/svg"
 width="1024.000000pt" height="1024.000000pt" viewBox="0 0 1024.000000 1024.000000"
 preserveAspectRatio="xMidYMid meet">
<metadata>
Created by potrace 1.14, written by Peter Selinger 2001-2017
</metadata>
<g transform="translate(0.000000,1024.000000) scale(0.100000,-0.100000)"
fill="#000000" stroke="none">
<path d="M366 10224 c-173 -42 -318 -190 -355 -362 -15 -71 -16 -9393 -1
-9473 34 -177 177 -327 355 -374 53 -13 569 -15 4745 -15 5116 0 4760 -4 4872
57 75 41 160 123 196 191 67 125 62 -291 62 4867 0 5142 5 4752 -61 4876 -60
112 -195 210 -327 238 -38 8 -1354 11 -4740 10 -4012 -1 -4695 -3 -4746 -15z
m1229 -3367 c324 -666 648 -1331 719 -1477 l129 -265 118 243 c65 134 389 799
720 1478 l602 1234 420 0 c395 0 419 -1 413 -17 -4 -10 -430 -826 -946 -1814
l-940 -1796 0 -1102 0 -1101 -380 0 -380 0 0 1095 0 1096 -731 1392 c-403 766
-820 1561 -929 1767 -108 206 -209 399 -224 428 l-26 52 422 0 423 0 590
-1213z m4645 -1344 c0 -1342 4 -1492 40 -1683 21 -110 78 -286 117 -364 132
-260 363 -465 631 -557 150 -52 442 -88 592 -74 226 22 404 66 540 135 265
134 455 351 563 645 35 97 54 165 79 297 22 112 22 122 25 1511 l4 1397 384 0
385 0 0 -2290 0 -2290 -385 0 -385 0 -2 332 -3 331 -36 -54 c-160 -241 -455
-462 -760 -568 -210 -73 -360 -100 -609 -108 -368 -12 -697 59 -1002 214 -149
75 -265 160 -389 283 -233 232 -382 495 -464 825 -73 289 -69 175 -72 1833
l-4 1492 376 0 375 0 0 -1307z"/>
</g>
</svg>
